<mxfile host="app.diagrams.net" modified="2023-12-14T11:53:02.597Z" agent="Mozilla/5.0 (X11; Linux x86_64) AppleWebKit/537.36 (KHTML, like Gecko) Chrome/118.0.0.0 Safari/537.36" etag="nQ5gGLJZMwNXlUjco2k7" version="22.1.8" type="device">
  <diagram id="R2lEEEUBdFMjLlhIrx00" name="Page-1">
    <mxGraphModel dx="2140" dy="225" grid="1" gridSize="10" guides="1" tooltips="1" connect="1" arrows="1" fold="1" page="1" pageScale="1" pageWidth="850" pageHeight="1100" math="0" shadow="0" extFonts="Permanent Marker^https://fonts.googleapis.com/css?family=Permanent+Marker">
      <root>
        <mxCell id="0" />
        <mxCell id="1" parent="0" />
        <mxCell id="GyqNB_QGZYDhcR1YfQ0c-1" value="&lt;font style=&quot;font-size: 23px;&quot;&gt;DOCTOR&lt;/font&gt;" style="whiteSpace=wrap;html=1;align=center;" parent="1" vertex="1">
          <mxGeometry x="-455" y="470" width="200" height="80" as="geometry" />
        </mxCell>
        <mxCell id="PNv33rmoJmEbJsV9aE_i-12" value="&lt;font style=&quot;font-size: 10px;&quot;&gt;Email&lt;br&gt;&lt;/font&gt;" style="text;html=1;align=center;verticalAlign=middle;resizable=0;points=[];autosize=1;strokeColor=none;fillColor=none;" parent="1" vertex="1">
          <mxGeometry x="-450" y="255" width="50" height="30" as="geometry" />
        </mxCell>
        <mxCell id="PNv33rmoJmEbJsV9aE_i-19" value="" style="shape=flexArrow;endArrow=classic;html=1;rounded=0;labelBackgroundColor=#000000;fillColor=#FFFFFF;strokeColor=#000000;" parent="1" edge="1">
          <mxGeometry width="50" height="50" relative="1" as="geometry">
            <mxPoint x="-352.7" y="470" as="sourcePoint" />
            <mxPoint x="-352.7" y="400" as="targetPoint" />
          </mxGeometry>
        </mxCell>
        <mxCell id="PNv33rmoJmEbJsV9aE_i-28" value="" style="endArrow=none;html=1;rounded=0;entryX=-0.006;entryY=0.498;entryDx=0;entryDy=0;entryPerimeter=0;" parent="1" target="PNv33rmoJmEbJsV9aE_i-29" edge="1">
          <mxGeometry width="50" height="50" relative="1" as="geometry">
            <mxPoint x="-255" y="544.95" as="sourcePoint" />
            <mxPoint x="-190" y="544.95" as="targetPoint" />
          </mxGeometry>
        </mxCell>
        <mxCell id="PNv33rmoJmEbJsV9aE_i-29" value="Own" style="shape=rhombus;perimeter=rhombusPerimeter;whiteSpace=wrap;html=1;align=center;" parent="1" vertex="1">
          <mxGeometry x="-20" y="515" width="120" height="60" as="geometry" />
        </mxCell>
        <mxCell id="PNv33rmoJmEbJsV9aE_i-30" value="" style="endArrow=none;html=1;rounded=0;" parent="1" edge="1">
          <mxGeometry width="50" height="50" relative="1" as="geometry">
            <mxPoint x="100" y="545" as="sourcePoint" />
            <mxPoint x="290" y="545" as="targetPoint" />
          </mxGeometry>
        </mxCell>
        <mxCell id="PNv33rmoJmEbJsV9aE_i-31" value="&lt;font style=&quot;font-size: 23px;&quot;&gt;SPECIALIZATION&lt;/font&gt;" style="whiteSpace=wrap;html=1;align=center;" parent="1" vertex="1">
          <mxGeometry x="290" y="505" width="200" height="80" as="geometry" />
        </mxCell>
        <mxCell id="PNv33rmoJmEbJsV9aE_i-32" value="(1,N)" style="text;html=1;align=center;verticalAlign=middle;resizable=0;points=[];autosize=1;strokeColor=none;fillColor=none;" parent="1" vertex="1">
          <mxGeometry x="-262.5" y="520" width="50" height="30" as="geometry" />
        </mxCell>
        <mxCell id="PNv33rmoJmEbJsV9aE_i-33" value="(0,N)" style="text;html=1;align=center;verticalAlign=middle;resizable=0;points=[];autosize=1;strokeColor=none;fillColor=none;" parent="1" vertex="1">
          <mxGeometry x="240" y="520" width="50" height="30" as="geometry" />
        </mxCell>
        <mxCell id="PNv33rmoJmEbJsV9aE_i-34" value="TASK" style="rounded=0;whiteSpace=wrap;html=1;" parent="1" vertex="1">
          <mxGeometry x="-1670" y="280" width="120" height="60" as="geometry" />
        </mxCell>
        <mxCell id="PNv33rmoJmEbJsV9aE_i-60" value="" style="endArrow=none;html=1;rounded=0;entryX=0;entryY=0.5;entryDx=0;entryDy=0;exitX=1.015;exitY=0.498;exitDx=0;exitDy=0;exitPerimeter=0;" parent="1" source="PNv33rmoJmEbJsV9aE_i-59" target="GyqNB_QGZYDhcR1YfQ0c-1" edge="1">
          <mxGeometry width="50" height="50" relative="1" as="geometry">
            <mxPoint x="-510" y="510" as="sourcePoint" />
            <mxPoint x="-460" y="510" as="targetPoint" />
          </mxGeometry>
        </mxCell>
        <mxCell id="PNv33rmoJmEbJsV9aE_i-62" value="(1,N)" style="text;html=1;align=center;verticalAlign=middle;resizable=0;points=[];autosize=1;strokeColor=none;fillColor=none;" parent="1" vertex="1">
          <mxGeometry x="-505" y="480" width="50" height="30" as="geometry" />
        </mxCell>
        <mxCell id="PNv33rmoJmEbJsV9aE_i-65" value="CONCRETE SHIFT" style="rounded=0;whiteSpace=wrap;html=1;" parent="1" vertex="1">
          <mxGeometry x="-830" y="480" width="120" height="60" as="geometry" />
        </mxCell>
        <mxCell id="PNv33rmoJmEbJsV9aE_i-66" value="&lt;font style=&quot;font-size: 23px;&quot;&gt;SERVICE&lt;/font&gt;" style="whiteSpace=wrap;html=1;align=center;" parent="1" vertex="1">
          <mxGeometry x="-1290" y="275" width="200" height="80" as="geometry" />
        </mxCell>
        <mxCell id="PNv33rmoJmEbJsV9aE_i-67" value="" style="endArrow=none;html=1;rounded=0;" parent="1" edge="1">
          <mxGeometry width="50" height="50" relative="1" as="geometry">
            <mxPoint x="-770.14" y="340" as="sourcePoint" />
            <mxPoint x="-770.14" y="380" as="targetPoint" />
          </mxGeometry>
        </mxCell>
        <mxCell id="PNv33rmoJmEbJsV9aE_i-68" value="Is" style="shape=rhombus;perimeter=rhombusPerimeter;whiteSpace=wrap;html=1;align=center;" parent="1" vertex="1">
          <mxGeometry x="-830" y="380" width="120" height="60" as="geometry" />
        </mxCell>
        <mxCell id="PNv33rmoJmEbJsV9aE_i-69" value="" style="endArrow=none;html=1;rounded=0;" parent="1" edge="1">
          <mxGeometry width="50" height="50" relative="1" as="geometry">
            <mxPoint x="-770.14" y="440" as="sourcePoint" />
            <mxPoint x="-770.14" y="480" as="targetPoint" />
          </mxGeometry>
        </mxCell>
        <mxCell id="PNv33rmoJmEbJsV9aE_i-70" value="" style="ellipse;whiteSpace=wrap;html=1;aspect=fixed;fillColor=#000000;" parent="1" vertex="1">
          <mxGeometry x="-810" y="465" width="10" height="10" as="geometry" />
        </mxCell>
        <mxCell id="PNv33rmoJmEbJsV9aE_i-71" value="" style="endArrow=none;html=1;rounded=0;" parent="1" edge="1">
          <mxGeometry width="50" height="50" relative="1" as="geometry">
            <mxPoint x="-800" y="469.88" as="sourcePoint" />
            <mxPoint x="-720" y="470" as="targetPoint" />
          </mxGeometry>
        </mxCell>
        <mxCell id="PNv33rmoJmEbJsV9aE_i-72" value="(1,N)" style="text;html=1;align=center;verticalAlign=middle;resizable=0;points=[];autosize=1;strokeColor=none;fillColor=none;" parent="1" vertex="1">
          <mxGeometry x="-820" y="340" width="50" height="30" as="geometry" />
        </mxCell>
        <mxCell id="PNv33rmoJmEbJsV9aE_i-73" value="(1,1)" style="text;html=1;align=center;verticalAlign=middle;resizable=0;points=[];autosize=1;strokeColor=none;fillColor=none;" parent="1" vertex="1">
          <mxGeometry x="-820" y="441.25" width="50" height="30" as="geometry" />
        </mxCell>
        <mxCell id="PNv33rmoJmEbJsV9aE_i-76" value="Compose" style="shape=rhombus;perimeter=rhombusPerimeter;whiteSpace=wrap;html=1;align=center;" parent="1" vertex="1">
          <mxGeometry x="-1020" y="285" width="120" height="60" as="geometry" />
        </mxCell>
        <mxCell id="PNv33rmoJmEbJsV9aE_i-80" value="SHIFT" style="rounded=0;whiteSpace=wrap;html=1;" parent="1" vertex="1">
          <mxGeometry x="-830" y="280" width="120" height="60" as="geometry" />
        </mxCell>
        <mxCell id="PNv33rmoJmEbJsV9aE_i-99" value="(1,N)" style="text;html=1;align=center;verticalAlign=middle;resizable=0;points=[];autosize=1;strokeColor=none;fillColor=none;" parent="1" vertex="1">
          <mxGeometry x="-760" y="250" width="50" height="30" as="geometry" />
        </mxCell>
        <mxCell id="A-pq6QIkf452v8GSobeY-7" value="" style="shape=flexArrow;endArrow=classic;html=1;rounded=0;labelBackgroundColor=#000000;fillColor=#000000;strokeColor=#6c8ebf;" parent="1" edge="1">
          <mxGeometry width="50" height="50" relative="1" as="geometry">
            <mxPoint x="-272" y="870" as="sourcePoint" />
            <mxPoint x="-272.5" y="810" as="targetPoint" />
          </mxGeometry>
        </mxCell>
        <mxCell id="A-pq6QIkf452v8GSobeY-8" value="" style="endArrow=none;html=1;rounded=0;" parent="1" edge="1">
          <mxGeometry width="50" height="50" relative="1" as="geometry">
            <mxPoint x="-180" y="870" as="sourcePoint" />
            <mxPoint x="-360" y="870" as="targetPoint" />
          </mxGeometry>
        </mxCell>
        <mxCell id="A-pq6QIkf452v8GSobeY-9" value="" style="endArrow=none;html=1;rounded=0;" parent="1" edge="1">
          <mxGeometry width="50" height="50" relative="1" as="geometry">
            <mxPoint x="-180" y="870" as="sourcePoint" />
            <mxPoint x="-180" y="910" as="targetPoint" />
          </mxGeometry>
        </mxCell>
        <mxCell id="A-pq6QIkf452v8GSobeY-10" value="" style="endArrow=none;html=1;rounded=0;entryX=0;entryY=0.5;entryDx=0;entryDy=0;" parent="1" edge="1">
          <mxGeometry width="50" height="50" relative="1" as="geometry">
            <mxPoint x="-360" y="910" as="sourcePoint" />
            <mxPoint x="-360" y="870.33" as="targetPoint" />
          </mxGeometry>
        </mxCell>
        <mxCell id="A-pq6QIkf452v8GSobeY-11" value="PERMANENT CONDITION" style="rounded=0;whiteSpace=wrap;html=1;" parent="1" vertex="1">
          <mxGeometry x="-420" y="910" width="120" height="60" as="geometry" />
        </mxCell>
        <mxCell id="A-pq6QIkf452v8GSobeY-12" value="TEMPORARY CONDITION" style="rounded=0;whiteSpace=wrap;html=1;" parent="1" vertex="1">
          <mxGeometry x="-240" y="910" width="120" height="60" as="geometry" />
        </mxCell>
        <mxCell id="A-pq6QIkf452v8GSobeY-13" value="" style="ellipse;whiteSpace=wrap;html=1;aspect=fixed;fillColor=#000000;" parent="1" vertex="1">
          <mxGeometry x="-830" y="250" width="10" height="10" as="geometry" />
        </mxCell>
        <mxCell id="A-pq6QIkf452v8GSobeY-14" value="" style="endArrow=none;html=1;rounded=0;" parent="1" edge="1">
          <mxGeometry width="50" height="50" relative="1" as="geometry">
            <mxPoint x="-825.1700000000001" y="280" as="sourcePoint" />
            <mxPoint x="-825.1700000000001" y="260" as="targetPoint" />
          </mxGeometry>
        </mxCell>
        <mxCell id="A-pq6QIkf452v8GSobeY-15" value="&lt;font style=&quot;font-size: 10px;&quot;&gt;ID&lt;/font&gt;" style="text;html=1;align=center;verticalAlign=middle;resizable=0;points=[];autosize=1;strokeColor=none;fillColor=none;" parent="1" vertex="1">
          <mxGeometry x="-840" y="225" width="30" height="30" as="geometry" />
        </mxCell>
        <mxCell id="A-pq6QIkf452v8GSobeY-16" value="" style="ellipse;whiteSpace=wrap;html=1;aspect=fixed;fillColor=#FFFFFF;" parent="1" vertex="1">
          <mxGeometry x="-790" y="250" width="10" height="10" as="geometry" />
        </mxCell>
        <mxCell id="A-pq6QIkf452v8GSobeY-17" value="" style="endArrow=none;html=1;rounded=0;" parent="1" edge="1">
          <mxGeometry width="50" height="50" relative="1" as="geometry">
            <mxPoint x="-785.1700000000001" y="280" as="sourcePoint" />
            <mxPoint x="-785.1700000000001" y="260" as="targetPoint" />
          </mxGeometry>
        </mxCell>
        <mxCell id="A-pq6QIkf452v8GSobeY-18" value="&lt;font style=&quot;font-size: 10px;&quot;&gt;Time Slot&lt;/font&gt;" style="text;html=1;align=center;verticalAlign=middle;resizable=0;points=[];autosize=1;strokeColor=none;fillColor=none;" parent="1" vertex="1">
          <mxGeometry x="-820" y="225" width="70" height="30" as="geometry" />
        </mxCell>
        <mxCell id="A-pq6QIkf452v8GSobeY-22" value="" style="ellipse;whiteSpace=wrap;html=1;aspect=fixed;fillColor=#FFFFFF;" parent="1" vertex="1">
          <mxGeometry x="-680" y="290" width="10" height="10" as="geometry" />
        </mxCell>
        <mxCell id="A-pq6QIkf452v8GSobeY-23" value="" style="endArrow=none;html=1;rounded=0;exitX=-0.14;exitY=0.464;exitDx=0;exitDy=0;exitPerimeter=0;" parent="1" source="A-pq6QIkf452v8GSobeY-22" edge="1">
          <mxGeometry width="50" height="50" relative="1" as="geometry">
            <mxPoint x="-685.1700000000001" y="294.91999999999996" as="sourcePoint" />
            <mxPoint x="-710" y="294.91999999999996" as="targetPoint" />
          </mxGeometry>
        </mxCell>
        <mxCell id="A-pq6QIkf452v8GSobeY-24" value="&lt;font style=&quot;font-size: 10px;&quot;&gt;Start Time&lt;/font&gt;" style="text;html=1;align=center;verticalAlign=middle;resizable=0;points=[];autosize=1;strokeColor=none;fillColor=none;" parent="1" vertex="1">
          <mxGeometry x="-675" y="280" width="70" height="30" as="geometry" />
        </mxCell>
        <mxCell id="A-pq6QIkf452v8GSobeY-25" value="" style="ellipse;whiteSpace=wrap;html=1;aspect=fixed;fillColor=#FFFFFF;" parent="1" vertex="1">
          <mxGeometry x="-680" y="305" width="10" height="10" as="geometry" />
        </mxCell>
        <mxCell id="A-pq6QIkf452v8GSobeY-26" value="" style="endArrow=none;html=1;rounded=0;exitX=-0.14;exitY=0.464;exitDx=0;exitDy=0;exitPerimeter=0;" parent="1" source="A-pq6QIkf452v8GSobeY-25" edge="1">
          <mxGeometry width="50" height="50" relative="1" as="geometry">
            <mxPoint x="-685.1700000000001" y="309.91999999999996" as="sourcePoint" />
            <mxPoint x="-710" y="309.91999999999996" as="targetPoint" />
          </mxGeometry>
        </mxCell>
        <mxCell id="A-pq6QIkf452v8GSobeY-27" value="Duration" style="text;html=1;align=center;verticalAlign=middle;resizable=0;points=[];autosize=1;strokeColor=none;fillColor=none;" parent="1" vertex="1">
          <mxGeometry x="-675" y="295" width="70" height="30" as="geometry" />
        </mxCell>
        <mxCell id="A-pq6QIkf452v8GSobeY-28" value="" style="ellipse;whiteSpace=wrap;html=1;aspect=fixed;fillColor=#FFFFFF;" parent="1" vertex="1">
          <mxGeometry x="-680" y="320" width="10" height="10" as="geometry" />
        </mxCell>
        <mxCell id="A-pq6QIkf452v8GSobeY-29" value="" style="endArrow=none;html=1;rounded=0;exitX=-0.14;exitY=0.464;exitDx=0;exitDy=0;exitPerimeter=0;" parent="1" source="A-pq6QIkf452v8GSobeY-28" edge="1">
          <mxGeometry width="50" height="50" relative="1" as="geometry">
            <mxPoint x="-685.1700000000001" y="324.91999999999996" as="sourcePoint" />
            <mxPoint x="-710" y="324.91999999999996" as="targetPoint" />
          </mxGeometry>
        </mxCell>
        <mxCell id="A-pq6QIkf452v8GSobeY-30" value="&lt;font style=&quot;font-size: 10px;&quot;&gt;Availability&lt;/font&gt;" style="text;html=1;align=center;verticalAlign=middle;resizable=0;points=[];autosize=1;strokeColor=none;fillColor=none;" parent="1" vertex="1">
          <mxGeometry x="-675" y="310" width="70" height="30" as="geometry" />
        </mxCell>
        <mxCell id="A-pq6QIkf452v8GSobeY-31" value="Assign" style="shape=rhombus;perimeter=rhombusPerimeter;whiteSpace=wrap;html=1;align=center;" parent="1" vertex="1">
          <mxGeometry x="-1480" y="280" width="120" height="60" as="geometry" />
        </mxCell>
        <mxCell id="A-pq6QIkf452v8GSobeY-35" value="Represent" style="shape=rhombus;perimeter=rhombusPerimeter;whiteSpace=wrap;html=1;align=center;" parent="1" vertex="1">
          <mxGeometry x="-60" y="445" width="120" height="60" as="geometry" />
        </mxCell>
        <mxCell id="A-pq6QIkf452v8GSobeY-36" value="" style="endArrow=none;html=1;rounded=0;" parent="1" edge="1">
          <mxGeometry width="50" height="50" relative="1" as="geometry">
            <mxPoint x="130" y="474.89" as="sourcePoint" />
            <mxPoint x="60" y="474.89" as="targetPoint" />
          </mxGeometry>
        </mxCell>
        <mxCell id="A-pq6QIkf452v8GSobeY-37" value="SENIORITY" style="rounded=0;whiteSpace=wrap;html=1;" parent="1" vertex="1">
          <mxGeometry x="130" y="445" width="120" height="60" as="geometry" />
        </mxCell>
        <mxCell id="A-pq6QIkf452v8GSobeY-38" value="(0,N)" style="text;html=1;align=center;verticalAlign=middle;resizable=0;points=[];autosize=1;strokeColor=none;fillColor=none;" parent="1" vertex="1">
          <mxGeometry x="80" y="445" width="50" height="30" as="geometry" />
        </mxCell>
        <mxCell id="A-pq6QIkf452v8GSobeY-48" value="Represent" style="shape=rhombus;perimeter=rhombusPerimeter;whiteSpace=wrap;html=1;align=center;" parent="1" vertex="1">
          <mxGeometry x="-600" y="80" width="120" height="60" as="geometry" />
        </mxCell>
        <mxCell id="A-pq6QIkf452v8GSobeY-50" value="" style="endArrow=none;html=1;rounded=0;edgeStyle=orthogonalEdgeStyle;entryX=1;entryY=0.5;entryDx=0;entryDy=0;exitX=1.005;exitY=0.495;exitDx=0;exitDy=0;exitPerimeter=0;" parent="1" edge="1">
          <mxGeometry width="50" height="50" relative="1" as="geometry">
            <mxPoint x="250.60000000000036" y="479.70000000000005" as="sourcePoint" />
            <mxPoint x="-480" y="110.01" as="targetPoint" />
            <Array as="points">
              <mxPoint x="254" y="480" />
              <mxPoint x="270" y="480" />
              <mxPoint x="270" y="110" />
            </Array>
          </mxGeometry>
        </mxCell>
        <mxCell id="A-pq6QIkf452v8GSobeY-52" value="(1,1)" style="text;html=1;align=center;verticalAlign=middle;resizable=0;points=[];autosize=1;strokeColor=none;fillColor=none;" parent="1" vertex="1">
          <mxGeometry x="-880" y="280" width="50" height="30" as="geometry" />
        </mxCell>
        <mxCell id="A-pq6QIkf452v8GSobeY-53" value="" style="ellipse;whiteSpace=wrap;html=1;aspect=fixed;fillColor=#FFFFFF;" parent="1" vertex="1">
          <mxGeometry x="-545" y="50" width="10" height="10" as="geometry" />
        </mxCell>
        <mxCell id="A-pq6QIkf452v8GSobeY-54" value="" style="endArrow=none;html=1;rounded=0;" parent="1" edge="1">
          <mxGeometry width="50" height="50" relative="1" as="geometry">
            <mxPoint x="-540.17" y="80" as="sourcePoint" />
            <mxPoint x="-540.17" y="60" as="targetPoint" />
          </mxGeometry>
        </mxCell>
        <mxCell id="A-pq6QIkf452v8GSobeY-55" value="&lt;span style=&quot;font-size: 10px;&quot;&gt;Quantity&lt;/span&gt;" style="text;html=1;align=center;verticalAlign=middle;resizable=0;points=[];autosize=1;strokeColor=none;fillColor=none;" parent="1" vertex="1">
          <mxGeometry x="-570" y="20" width="60" height="30" as="geometry" />
        </mxCell>
        <mxCell id="A-pq6QIkf452v8GSobeY-56" value="" style="ellipse;whiteSpace=wrap;html=1;aspect=fixed;fillColor=#FFFFFF;" parent="1" vertex="1">
          <mxGeometry x="-680" y="335" width="10" height="10" as="geometry" />
        </mxCell>
        <mxCell id="A-pq6QIkf452v8GSobeY-57" value="" style="endArrow=none;html=1;rounded=0;exitX=-0.14;exitY=0.464;exitDx=0;exitDy=0;exitPerimeter=0;" parent="1" source="A-pq6QIkf452v8GSobeY-56" edge="1">
          <mxGeometry width="50" height="50" relative="1" as="geometry">
            <mxPoint x="-685.1700000000001" y="339.91999999999996" as="sourcePoint" />
            <mxPoint x="-710" y="339.91999999999996" as="targetPoint" />
          </mxGeometry>
        </mxCell>
        <mxCell id="A-pq6QIkf452v8GSobeY-58" value="&lt;font style=&quot;font-size: 10px;&quot;&gt;Day Of Week&lt;/font&gt;" style="text;html=1;align=center;verticalAlign=middle;resizable=0;points=[];autosize=1;strokeColor=none;fillColor=none;" parent="1" vertex="1">
          <mxGeometry x="-675" y="325" width="80" height="30" as="geometry" />
        </mxCell>
        <mxCell id="A-pq6QIkf452v8GSobeY-73" value="&lt;font style=&quot;font-size: 23px;&quot;&gt;CONDITION&lt;/font&gt;" style="whiteSpace=wrap;html=1;align=center;" parent="1" vertex="1">
          <mxGeometry x="-370" y="730" width="200" height="80" as="geometry" />
        </mxCell>
        <mxCell id="A-pq6QIkf452v8GSobeY-75" value="" style="ellipse;whiteSpace=wrap;html=1;aspect=fixed;fillColor=#FFFFFF;" parent="1" vertex="1">
          <mxGeometry x="-210" y="990" width="10" height="10" as="geometry" />
        </mxCell>
        <mxCell id="A-pq6QIkf452v8GSobeY-76" value="" style="endArrow=none;html=1;rounded=0;" parent="1" edge="1">
          <mxGeometry width="50" height="50" relative="1" as="geometry">
            <mxPoint x="-205.00000000000006" y="990" as="sourcePoint" />
            <mxPoint x="-205.00000000000006" y="970" as="targetPoint" />
          </mxGeometry>
        </mxCell>
        <mxCell id="A-pq6QIkf452v8GSobeY-77" value="&lt;font style=&quot;font-size: 10px;&quot;&gt;Start Date&lt;/font&gt;" style="text;html=1;align=center;verticalAlign=middle;resizable=0;points=[];autosize=1;strokeColor=none;fillColor=none;" parent="1" vertex="1">
          <mxGeometry x="-240" y="995" width="70" height="30" as="geometry" />
        </mxCell>
        <mxCell id="A-pq6QIkf452v8GSobeY-78" value="" style="ellipse;whiteSpace=wrap;html=1;aspect=fixed;fillColor=#FFFFFF;" parent="1" vertex="1">
          <mxGeometry x="-160" y="990" width="10" height="10" as="geometry" />
        </mxCell>
        <mxCell id="A-pq6QIkf452v8GSobeY-79" value="" style="endArrow=none;html=1;rounded=0;" parent="1" edge="1">
          <mxGeometry width="50" height="50" relative="1" as="geometry">
            <mxPoint x="-155.08000000000004" y="990" as="sourcePoint" />
            <mxPoint x="-155.08000000000004" y="970" as="targetPoint" />
          </mxGeometry>
        </mxCell>
        <mxCell id="A-pq6QIkf452v8GSobeY-80" value="&lt;span style=&quot;font-size: 10px;&quot;&gt;End Date&lt;br&gt;&lt;/span&gt;" style="text;html=1;align=center;verticalAlign=middle;resizable=0;points=[];autosize=1;strokeColor=none;fillColor=none;" parent="1" vertex="1">
          <mxGeometry x="-190" y="995" width="70" height="30" as="geometry" />
        </mxCell>
        <mxCell id="HNxKLIjDbpaVr-Jhb6Nx-2" value="&lt;font style=&quot;font-size: 23px;&quot;&gt;USER&lt;/font&gt;" style="whiteSpace=wrap;html=1;align=center;" parent="1" vertex="1">
          <mxGeometry x="-452.5" y="315" width="200" height="80" as="geometry" />
        </mxCell>
        <mxCell id="HNxKLIjDbpaVr-Jhb6Nx-3" value="" style="ellipse;whiteSpace=wrap;html=1;aspect=fixed;fillColor=#000000;" parent="1" vertex="1">
          <mxGeometry x="-455" y="285" width="10" height="10" as="geometry" />
        </mxCell>
        <mxCell id="HNxKLIjDbpaVr-Jhb6Nx-4" value="" style="endArrow=none;html=1;rounded=0;" parent="1" edge="1">
          <mxGeometry width="50" height="50" relative="1" as="geometry">
            <mxPoint x="-450.1700000000001" y="315" as="sourcePoint" />
            <mxPoint x="-450.1700000000001" y="295" as="targetPoint" />
          </mxGeometry>
        </mxCell>
        <mxCell id="HNxKLIjDbpaVr-Jhb6Nx-5" value="" style="ellipse;whiteSpace=wrap;html=1;aspect=fixed;fillColor=#FFFFFF;" parent="1" vertex="1">
          <mxGeometry x="-430" y="285" width="10" height="10" as="geometry" />
        </mxCell>
        <mxCell id="HNxKLIjDbpaVr-Jhb6Nx-6" value="" style="endArrow=none;html=1;rounded=0;" parent="1" edge="1">
          <mxGeometry width="50" height="50" relative="1" as="geometry">
            <mxPoint x="-425.17" y="315" as="sourcePoint" />
            <mxPoint x="-425.17" y="295" as="targetPoint" />
          </mxGeometry>
        </mxCell>
        <mxCell id="HNxKLIjDbpaVr-Jhb6Nx-7" value="" style="ellipse;whiteSpace=wrap;html=1;aspect=fixed;fillColor=#FFFFFF;" parent="1" vertex="1">
          <mxGeometry x="-280" y="285" width="10" height="10" as="geometry" />
        </mxCell>
        <mxCell id="HNxKLIjDbpaVr-Jhb6Nx-8" value="" style="endArrow=none;html=1;rounded=0;" parent="1" edge="1">
          <mxGeometry width="50" height="50" relative="1" as="geometry">
            <mxPoint x="-275.08000000000004" y="315" as="sourcePoint" />
            <mxPoint x="-275.08000000000004" y="295" as="targetPoint" />
          </mxGeometry>
        </mxCell>
        <mxCell id="HNxKLIjDbpaVr-Jhb6Nx-9" value="&lt;font style=&quot;font-size: 10px;&quot;&gt;ID&lt;/font&gt;" style="text;html=1;align=center;verticalAlign=middle;resizable=0;points=[];autosize=1;strokeColor=none;fillColor=none;" parent="1" vertex="1">
          <mxGeometry x="-465" y="255" width="30" height="30" as="geometry" />
        </mxCell>
        <mxCell id="HNxKLIjDbpaVr-Jhb6Nx-11" value="&lt;font style=&quot;font-size: 10px;&quot;&gt;Lastname&lt;/font&gt;" style="text;html=1;align=center;verticalAlign=middle;resizable=0;points=[];autosize=1;strokeColor=none;fillColor=none;" parent="1" vertex="1">
          <mxGeometry x="-310" y="255" width="70" height="30" as="geometry" />
        </mxCell>
        <mxCell id="HNxKLIjDbpaVr-Jhb6Nx-12" value="" style="ellipse;whiteSpace=wrap;html=1;aspect=fixed;fillColor=#FFFFFF;" parent="1" vertex="1">
          <mxGeometry x="-385" y="285" width="10" height="10" as="geometry" />
        </mxCell>
        <mxCell id="HNxKLIjDbpaVr-Jhb6Nx-13" value="" style="endArrow=none;html=1;rounded=0;" parent="1" edge="1">
          <mxGeometry width="50" height="50" relative="1" as="geometry">
            <mxPoint x="-380.17" y="315" as="sourcePoint" />
            <mxPoint x="-380.17" y="295" as="targetPoint" />
          </mxGeometry>
        </mxCell>
        <mxCell id="HNxKLIjDbpaVr-Jhb6Nx-14" value="&lt;span style=&quot;font-size: 10px;&quot;&gt;Birthday&lt;br&gt;&lt;/span&gt;" style="text;html=1;align=center;verticalAlign=middle;resizable=0;points=[];autosize=1;strokeColor=none;fillColor=none;" parent="1" vertex="1">
          <mxGeometry x="-410" y="255" width="60" height="30" as="geometry" />
        </mxCell>
        <mxCell id="HNxKLIjDbpaVr-Jhb6Nx-15" value="" style="ellipse;whiteSpace=wrap;html=1;aspect=fixed;fillColor=#FFFFFF;" parent="1" vertex="1">
          <mxGeometry x="-340" y="285" width="10" height="10" as="geometry" />
        </mxCell>
        <mxCell id="HNxKLIjDbpaVr-Jhb6Nx-16" value="" style="endArrow=none;html=1;rounded=0;" parent="1" edge="1">
          <mxGeometry width="50" height="50" relative="1" as="geometry">
            <mxPoint x="-335.17" y="315" as="sourcePoint" />
            <mxPoint x="-335.17" y="295" as="targetPoint" />
          </mxGeometry>
        </mxCell>
        <mxCell id="HNxKLIjDbpaVr-Jhb6Nx-17" value="&lt;font style=&quot;font-size: 10px;&quot;&gt;Tax Code&lt;br&gt;&lt;/font&gt;" style="text;html=1;align=center;verticalAlign=middle;resizable=0;points=[];autosize=1;strokeColor=none;fillColor=none;" parent="1" vertex="1">
          <mxGeometry x="-370" y="255" width="70" height="30" as="geometry" />
        </mxCell>
        <mxCell id="HNxKLIjDbpaVr-Jhb6Nx-18" value="" style="ellipse;whiteSpace=wrap;html=1;aspect=fixed;fillColor=#FFFFFF;" parent="1" vertex="1">
          <mxGeometry x="-440" y="415" width="10" height="10" as="geometry" />
        </mxCell>
        <mxCell id="HNxKLIjDbpaVr-Jhb6Nx-19" value="" style="endArrow=none;html=1;rounded=0;" parent="1" edge="1">
          <mxGeometry width="50" height="50" relative="1" as="geometry">
            <mxPoint x="-435.17" y="415" as="sourcePoint" />
            <mxPoint x="-435.17" y="395" as="targetPoint" />
          </mxGeometry>
        </mxCell>
        <mxCell id="HNxKLIjDbpaVr-Jhb6Nx-20" value="&lt;font style=&quot;font-size: 10px;&quot;&gt;System&lt;br&gt;Actor&lt;br&gt;&lt;/font&gt;" style="text;html=1;align=center;verticalAlign=middle;resizable=0;points=[];autosize=1;strokeColor=none;fillColor=none;" parent="1" vertex="1">
          <mxGeometry x="-465" y="415" width="60" height="40" as="geometry" />
        </mxCell>
        <mxCell id="HNxKLIjDbpaVr-Jhb6Nx-21" value="" style="ellipse;whiteSpace=wrap;html=1;aspect=fixed;fillColor=#FFFFFF;" parent="1" vertex="1">
          <mxGeometry x="-400" y="415" width="10" height="10" as="geometry" />
        </mxCell>
        <mxCell id="HNxKLIjDbpaVr-Jhb6Nx-22" value="" style="endArrow=none;html=1;rounded=0;" parent="1" edge="1">
          <mxGeometry width="50" height="50" relative="1" as="geometry">
            <mxPoint x="-395.04" y="415" as="sourcePoint" />
            <mxPoint x="-395.04" y="395" as="targetPoint" />
          </mxGeometry>
        </mxCell>
        <mxCell id="HNxKLIjDbpaVr-Jhb6Nx-23" value="&lt;font style=&quot;font-size: 10px;&quot;&gt;Email&lt;br&gt;&lt;/font&gt;" style="text;html=1;align=center;verticalAlign=middle;resizable=0;points=[];autosize=1;strokeColor=none;fillColor=none;" parent="1" vertex="1">
          <mxGeometry x="-420" y="415" width="50" height="30" as="geometry" />
        </mxCell>
        <mxCell id="HNxKLIjDbpaVr-Jhb6Nx-24" value="" style="ellipse;whiteSpace=wrap;html=1;aspect=fixed;fillColor=#FFFFFF;" parent="1" vertex="1">
          <mxGeometry x="-300" y="415" width="10" height="10" as="geometry" />
        </mxCell>
        <mxCell id="HNxKLIjDbpaVr-Jhb6Nx-25" value="" style="endArrow=none;html=1;rounded=0;" parent="1" edge="1">
          <mxGeometry width="50" height="50" relative="1" as="geometry">
            <mxPoint x="-295.17" y="415" as="sourcePoint" />
            <mxPoint x="-295.17" y="395" as="targetPoint" />
          </mxGeometry>
        </mxCell>
        <mxCell id="HNxKLIjDbpaVr-Jhb6Nx-26" value="&lt;font style=&quot;font-size: 10px;&quot;&gt;Password&lt;br&gt;&lt;/font&gt;" style="text;html=1;align=center;verticalAlign=middle;resizable=0;points=[];autosize=1;strokeColor=none;fillColor=none;" parent="1" vertex="1">
          <mxGeometry x="-330" y="415" width="70" height="30" as="geometry" />
        </mxCell>
        <mxCell id="HNxKLIjDbpaVr-Jhb6Nx-40" value="" style="ellipse;whiteSpace=wrap;html=1;aspect=fixed;fillColor=#000000;" parent="1" vertex="1">
          <mxGeometry x="-225" y="700" width="10" height="10" as="geometry" />
        </mxCell>
        <mxCell id="HNxKLIjDbpaVr-Jhb6Nx-41" value="" style="endArrow=none;html=1;rounded=0;" parent="1" edge="1">
          <mxGeometry width="50" height="50" relative="1" as="geometry">
            <mxPoint x="-220.17000000000002" y="730" as="sourcePoint" />
            <mxPoint x="-220.17000000000002" y="710" as="targetPoint" />
          </mxGeometry>
        </mxCell>
        <mxCell id="HNxKLIjDbpaVr-Jhb6Nx-42" value="" style="ellipse;whiteSpace=wrap;html=1;aspect=fixed;fillColor=#FFFFFF;" parent="1" vertex="1">
          <mxGeometry x="-200" y="700" width="10" height="10" as="geometry" />
        </mxCell>
        <mxCell id="HNxKLIjDbpaVr-Jhb6Nx-43" value="" style="endArrow=none;html=1;rounded=0;" parent="1" edge="1">
          <mxGeometry width="50" height="50" relative="1" as="geometry">
            <mxPoint x="-195.17000000000007" y="730" as="sourcePoint" />
            <mxPoint x="-195.17000000000007" y="710" as="targetPoint" />
          </mxGeometry>
        </mxCell>
        <mxCell id="HNxKLIjDbpaVr-Jhb6Nx-44" value="&lt;font style=&quot;font-size: 10px;&quot;&gt;ID&lt;/font&gt;" style="text;html=1;align=center;verticalAlign=middle;resizable=0;points=[];autosize=1;strokeColor=none;fillColor=none;" parent="1" vertex="1">
          <mxGeometry x="-235" y="670" width="30" height="30" as="geometry" />
        </mxCell>
        <mxCell id="HNxKLIjDbpaVr-Jhb6Nx-45" value="&lt;font style=&quot;font-size: 10px;&quot;&gt;Type&lt;/font&gt;" style="text;html=1;align=center;verticalAlign=middle;resizable=0;points=[];autosize=1;strokeColor=none;fillColor=none;" parent="1" vertex="1">
          <mxGeometry x="-220" y="670" width="50" height="30" as="geometry" />
        </mxCell>
        <mxCell id="PNv33rmoJmEbJsV9aE_i-59" value="Have" style="shape=rhombus;perimeter=rhombusPerimeter;whiteSpace=wrap;html=1;align=center;" parent="1" vertex="1">
          <mxGeometry x="-640" y="480" width="120" height="60" as="geometry" />
        </mxCell>
        <mxCell id="HNxKLIjDbpaVr-Jhb6Nx-49" value="" style="endArrow=none;html=1;rounded=0;exitX=1;exitY=0.5;exitDx=0;exitDy=0;entryX=0;entryY=0.5;entryDx=0;entryDy=0;" parent="1" source="PNv33rmoJmEbJsV9aE_i-65" target="PNv33rmoJmEbJsV9aE_i-59" edge="1">
          <mxGeometry width="50" height="50" relative="1" as="geometry">
            <mxPoint x="-680" y="570" as="sourcePoint" />
            <mxPoint x="-650" y="510" as="targetPoint" />
          </mxGeometry>
        </mxCell>
        <mxCell id="HNxKLIjDbpaVr-Jhb6Nx-50" value="(1,1)" style="text;html=1;align=center;verticalAlign=middle;resizable=0;points=[];autosize=1;strokeColor=none;fillColor=none;" parent="1" vertex="1">
          <mxGeometry x="-710" y="480" width="50" height="30" as="geometry" />
        </mxCell>
        <mxCell id="HNxKLIjDbpaVr-Jhb6Nx-56" value="CONSTRAINT" style="rounded=0;whiteSpace=wrap;html=1;" parent="1" vertex="1">
          <mxGeometry x="-1440" y="600" width="120" height="60" as="geometry" />
        </mxCell>
        <mxCell id="HNxKLIjDbpaVr-Jhb6Nx-57" value="&lt;font style=&quot;font-size: 23px;&quot;&gt;SCHEDULE&lt;/font&gt;" style="whiteSpace=wrap;html=1;align=center;" parent="1" vertex="1">
          <mxGeometry x="-1060" y="590" width="200" height="80" as="geometry" />
        </mxCell>
        <mxCell id="HNxKLIjDbpaVr-Jhb6Nx-60" value="" style="shape=flexArrow;endArrow=classic;html=1;rounded=0;labelBackgroundColor=#000000;fillColor=#FFFFFF;strokeColor=#000000;" parent="1" edge="1">
          <mxGeometry width="50" height="50" relative="1" as="geometry">
            <mxPoint x="-1380.12" y="725.08" as="sourcePoint" />
            <mxPoint x="-1380.12" y="660" as="targetPoint" />
          </mxGeometry>
        </mxCell>
        <mxCell id="HNxKLIjDbpaVr-Jhb6Nx-61" value="" style="endArrow=none;html=1;rounded=0;edgeStyle=orthogonalEdgeStyle;exitX=0.676;exitY=-0.001;exitDx=0;exitDy=0;exitPerimeter=0;" parent="1" source="PNv33rmoJmEbJsV9aE_i-80" edge="1">
          <mxGeometry width="50" height="50" relative="1" as="geometry">
            <mxPoint x="-760" y="110" as="sourcePoint" />
            <mxPoint x="-600" y="110" as="targetPoint" />
            <Array as="points">
              <mxPoint x="-750" y="280" />
              <mxPoint x="-750" y="110" />
            </Array>
          </mxGeometry>
        </mxCell>
        <mxCell id="HNxKLIjDbpaVr-Jhb6Nx-63" value="ADDITIONAL CONSTRAINT" style="rounded=0;whiteSpace=wrap;html=1;" parent="1" vertex="1">
          <mxGeometry x="-1440" y="720" width="120" height="60" as="geometry" />
        </mxCell>
        <mxCell id="HNxKLIjDbpaVr-Jhb6Nx-71" value="" style="endArrow=none;html=1;rounded=0;exitX=1;exitY=0.5;exitDx=0;exitDy=0;entryX=0;entryY=0.5;entryDx=0;entryDy=0;" parent="1" edge="1">
          <mxGeometry width="50" height="50" relative="1" as="geometry">
            <mxPoint x="-900" y="314.52" as="sourcePoint" />
            <mxPoint x="-830" y="314.52" as="targetPoint" />
          </mxGeometry>
        </mxCell>
        <mxCell id="HNxKLIjDbpaVr-Jhb6Nx-72" value="" style="endArrow=none;html=1;rounded=0;exitX=1;exitY=0.5;exitDx=0;exitDy=0;entryX=0;entryY=0.5;entryDx=0;entryDy=0;" parent="1" edge="1">
          <mxGeometry width="50" height="50" relative="1" as="geometry">
            <mxPoint x="-1090" y="315" as="sourcePoint" />
            <mxPoint x="-1020" y="315" as="targetPoint" />
          </mxGeometry>
        </mxCell>
        <mxCell id="HNxKLIjDbpaVr-Jhb6Nx-73" value="" style="endArrow=none;html=1;rounded=0;exitX=1;exitY=0.5;exitDx=0;exitDy=0;entryX=0;entryY=0.5;entryDx=0;entryDy=0;" parent="1" edge="1">
          <mxGeometry width="50" height="50" relative="1" as="geometry">
            <mxPoint x="-1360" y="310" as="sourcePoint" />
            <mxPoint x="-1290" y="310" as="targetPoint" />
          </mxGeometry>
        </mxCell>
        <mxCell id="HNxKLIjDbpaVr-Jhb6Nx-74" value="" style="endArrow=none;html=1;rounded=0;exitX=1;exitY=0.5;exitDx=0;exitDy=0;entryX=0;entryY=0.5;entryDx=0;entryDy=0;" parent="1" edge="1">
          <mxGeometry width="50" height="50" relative="1" as="geometry">
            <mxPoint x="-1550" y="310" as="sourcePoint" />
            <mxPoint x="-1480" y="310" as="targetPoint" />
          </mxGeometry>
        </mxCell>
        <mxCell id="HNxKLIjDbpaVr-Jhb6Nx-81" value="Compose" style="shape=rhombus;perimeter=rhombusPerimeter;whiteSpace=wrap;html=1;align=center;" parent="1" vertex="1">
          <mxGeometry x="-1020" y="481.25" width="120" height="60" as="geometry" />
        </mxCell>
        <mxCell id="HNxKLIjDbpaVr-Jhb6Nx-83" value="" style="endArrow=none;html=1;rounded=0;exitX=1;exitY=0.5;exitDx=0;exitDy=0;entryX=0;entryY=0.5;entryDx=0;entryDy=0;" parent="1" edge="1">
          <mxGeometry width="50" height="50" relative="1" as="geometry">
            <mxPoint x="-900" y="510.77" as="sourcePoint" />
            <mxPoint x="-830" y="510.77" as="targetPoint" />
          </mxGeometry>
        </mxCell>
        <mxCell id="HNxKLIjDbpaVr-Jhb6Nx-84" value="" style="endArrow=none;html=1;rounded=0;entryX=0;entryY=0.5;entryDx=0;entryDy=0;" parent="1" edge="1">
          <mxGeometry width="50" height="50" relative="1" as="geometry">
            <mxPoint x="-960" y="590" as="sourcePoint" />
            <mxPoint x="-960" y="541.25" as="targetPoint" />
          </mxGeometry>
        </mxCell>
        <mxCell id="HNxKLIjDbpaVr-Jhb6Nx-85" value="Compose" style="shape=rhombus;perimeter=rhombusPerimeter;whiteSpace=wrap;html=1;align=center;" parent="1" vertex="1">
          <mxGeometry x="-1250" y="600" width="120" height="60" as="geometry" />
        </mxCell>
        <mxCell id="HNxKLIjDbpaVr-Jhb6Nx-86" value="" style="endArrow=none;html=1;rounded=0;exitX=1;exitY=0.5;exitDx=0;exitDy=0;entryX=0;entryY=0.5;entryDx=0;entryDy=0;" parent="1" edge="1">
          <mxGeometry width="50" height="50" relative="1" as="geometry">
            <mxPoint x="-1130" y="629.52" as="sourcePoint" />
            <mxPoint x="-1060" y="629.52" as="targetPoint" />
          </mxGeometry>
        </mxCell>
        <mxCell id="HNxKLIjDbpaVr-Jhb6Nx-87" value="" style="endArrow=none;html=1;rounded=0;exitX=1;exitY=0.5;exitDx=0;exitDy=0;entryX=0;entryY=0.5;entryDx=0;entryDy=0;" parent="1" edge="1">
          <mxGeometry width="50" height="50" relative="1" as="geometry">
            <mxPoint x="-1320" y="630" as="sourcePoint" />
            <mxPoint x="-1250" y="630" as="targetPoint" />
          </mxGeometry>
        </mxCell>
        <mxCell id="HNxKLIjDbpaVr-Jhb6Nx-88" value="Compose" style="shape=rhombus;perimeter=rhombusPerimeter;whiteSpace=wrap;html=1;align=center;" parent="1" vertex="1">
          <mxGeometry x="-1120" y="390" width="120" height="60" as="geometry" />
        </mxCell>
        <mxCell id="HNxKLIjDbpaVr-Jhb6Nx-89" value="" style="endArrow=none;html=1;rounded=0;exitX=1;exitY=0.5;exitDx=0;exitDy=0;entryX=0.002;entryY=0.905;entryDx=0;entryDy=0;edgeStyle=orthogonalEdgeStyle;entryPerimeter=0;" parent="1" target="PNv33rmoJmEbJsV9aE_i-80" edge="1">
          <mxGeometry width="50" height="50" relative="1" as="geometry">
            <mxPoint x="-1000" y="419.52" as="sourcePoint" />
            <mxPoint x="-930" y="419.52" as="targetPoint" />
            <Array as="points">
              <mxPoint x="-890" y="420" />
              <mxPoint x="-890" y="334" />
            </Array>
          </mxGeometry>
        </mxCell>
        <mxCell id="HNxKLIjDbpaVr-Jhb6Nx-90" value="" style="endArrow=none;html=1;rounded=0;exitX=0;exitY=0.5;exitDx=0;exitDy=0;entryX=0;entryY=0.5;entryDx=0;entryDy=0;edgeStyle=orthogonalEdgeStyle;" parent="1" source="HNxKLIjDbpaVr-Jhb6Nx-63" edge="1">
          <mxGeometry width="50" height="50" relative="1" as="geometry">
            <mxPoint x="-1190" y="420" as="sourcePoint" />
            <mxPoint x="-1120" y="420" as="targetPoint" />
            <Array as="points">
              <mxPoint x="-1510" y="750" />
              <mxPoint x="-1510" y="420" />
            </Array>
          </mxGeometry>
        </mxCell>
        <mxCell id="HNxKLIjDbpaVr-Jhb6Nx-92" value="PREFERENCE" style="rounded=0;whiteSpace=wrap;html=1;" parent="1" vertex="1">
          <mxGeometry x="-500" y="730" width="120" height="60" as="geometry" />
        </mxCell>
        <mxCell id="HNxKLIjDbpaVr-Jhb6Nx-94" value="Have" style="shape=rhombus;perimeter=rhombusPerimeter;whiteSpace=wrap;html=1;align=center;" parent="1" vertex="1">
          <mxGeometry x="-500" y="610" width="120" height="60" as="geometry" />
        </mxCell>
        <mxCell id="HNxKLIjDbpaVr-Jhb6Nx-95" value="" style="endArrow=none;html=1;rounded=0;exitX=1;exitY=0.5;exitDx=0;exitDy=0;entryX=0.5;entryY=0;entryDx=0;entryDy=0;" parent="1" target="HNxKLIjDbpaVr-Jhb6Nx-92" edge="1">
          <mxGeometry width="50" height="50" relative="1" as="geometry">
            <mxPoint x="-440" y="670" as="sourcePoint" />
            <mxPoint x="-440" y="720" as="targetPoint" />
          </mxGeometry>
        </mxCell>
        <mxCell id="HNxKLIjDbpaVr-Jhb6Nx-96" value="" style="ellipse;whiteSpace=wrap;html=1;aspect=fixed;fillColor=#000000;" parent="1" vertex="1">
          <mxGeometry x="-490" y="820" width="10" height="10" as="geometry" />
        </mxCell>
        <mxCell id="HNxKLIjDbpaVr-Jhb6Nx-97" value="" style="endArrow=none;html=1;rounded=0;" parent="1" edge="1">
          <mxGeometry width="50" height="50" relative="1" as="geometry">
            <mxPoint x="-485" y="820" as="sourcePoint" />
            <mxPoint x="-485.0400000000001" y="790" as="targetPoint" />
          </mxGeometry>
        </mxCell>
        <mxCell id="HNxKLIjDbpaVr-Jhb6Nx-98" value="&lt;font style=&quot;font-size: 10px;&quot;&gt;ID&lt;/font&gt;" style="text;html=1;align=center;verticalAlign=middle;resizable=0;points=[];autosize=1;strokeColor=none;fillColor=none;" parent="1" vertex="1">
          <mxGeometry x="-500" y="820" width="30" height="30" as="geometry" />
        </mxCell>
        <mxCell id="HNxKLIjDbpaVr-Jhb6Nx-99" value="" style="ellipse;whiteSpace=wrap;html=1;aspect=fixed;fillColor=#FFFFFF;" parent="1" vertex="1">
          <mxGeometry x="-455" y="820" width="10" height="10" as="geometry" />
        </mxCell>
        <mxCell id="HNxKLIjDbpaVr-Jhb6Nx-100" value="&lt;font style=&quot;font-size: 10px;&quot;&gt;Time Slot&lt;/font&gt;" style="text;html=1;align=center;verticalAlign=middle;resizable=0;points=[];autosize=1;strokeColor=none;fillColor=none;" parent="1" vertex="1">
          <mxGeometry x="-485" y="820" width="70" height="30" as="geometry" />
        </mxCell>
        <mxCell id="HNxKLIjDbpaVr-Jhb6Nx-101" value="" style="endArrow=none;html=1;rounded=0;" parent="1" edge="1">
          <mxGeometry width="50" height="50" relative="1" as="geometry">
            <mxPoint x="-450" y="820" as="sourcePoint" />
            <mxPoint x="-450.0400000000001" y="790" as="targetPoint" />
          </mxGeometry>
        </mxCell>
        <mxCell id="HNxKLIjDbpaVr-Jhb6Nx-102" value="" style="ellipse;whiteSpace=wrap;html=1;aspect=fixed;fillColor=#FFFFFF;" parent="1" vertex="1">
          <mxGeometry x="-400" y="820" width="10" height="10" as="geometry" />
        </mxCell>
        <mxCell id="HNxKLIjDbpaVr-Jhb6Nx-103" value="" style="endArrow=none;html=1;rounded=0;" parent="1" edge="1">
          <mxGeometry width="50" height="50" relative="1" as="geometry">
            <mxPoint x="-395" y="820" as="sourcePoint" />
            <mxPoint x="-395.0400000000001" y="790" as="targetPoint" />
          </mxGeometry>
        </mxCell>
        <mxCell id="HNxKLIjDbpaVr-Jhb6Nx-104" value="&lt;font style=&quot;font-size: 10px;&quot;&gt;Date&lt;/font&gt;" style="text;html=1;align=center;verticalAlign=middle;resizable=0;points=[];autosize=1;strokeColor=none;fillColor=none;" parent="1" vertex="1">
          <mxGeometry x="-415" y="820" width="40" height="30" as="geometry" />
        </mxCell>
        <mxCell id="EmbIB9WHDej4bq0ra2Ar-1" value="" style="endArrow=none;html=1;rounded=0;entryX=0.008;entryY=0.506;entryDx=0;entryDy=0;entryPerimeter=0;" parent="1" target="A-pq6QIkf452v8GSobeY-35" edge="1">
          <mxGeometry width="50" height="50" relative="1" as="geometry">
            <mxPoint x="-255" y="474.52" as="sourcePoint" />
            <mxPoint x="-52.5" y="475" as="targetPoint" />
          </mxGeometry>
        </mxCell>
        <mxCell id="zyJOh6czUDk2VCxK8gsp-1" value="" style="endArrow=none;html=1;rounded=0;exitX=1;exitY=0.5;exitDx=0;exitDy=0;entryX=0.5;entryY=0;entryDx=0;entryDy=0;" parent="1" edge="1">
          <mxGeometry width="50" height="50" relative="1" as="geometry">
            <mxPoint x="-440" y="550" as="sourcePoint" />
            <mxPoint x="-440" y="610" as="targetPoint" />
          </mxGeometry>
        </mxCell>
        <mxCell id="zyJOh6czUDk2VCxK8gsp-2" value="Have" style="shape=rhombus;perimeter=rhombusPerimeter;whiteSpace=wrap;html=1;align=center;" parent="1" vertex="1">
          <mxGeometry x="-332.5" y="610" width="120" height="60" as="geometry" />
        </mxCell>
        <mxCell id="zyJOh6czUDk2VCxK8gsp-3" value="" style="endArrow=none;html=1;rounded=0;exitX=1;exitY=0.5;exitDx=0;exitDy=0;entryX=0.5;entryY=0;entryDx=0;entryDy=0;" parent="1" edge="1">
          <mxGeometry width="50" height="50" relative="1" as="geometry">
            <mxPoint x="-272.5" y="670" as="sourcePoint" />
            <mxPoint x="-272.5" y="730" as="targetPoint" />
          </mxGeometry>
        </mxCell>
        <mxCell id="zyJOh6czUDk2VCxK8gsp-4" value="" style="endArrow=none;html=1;rounded=0;exitX=1;exitY=0.5;exitDx=0;exitDy=0;entryX=0.5;entryY=0;entryDx=0;entryDy=0;" parent="1" edge="1">
          <mxGeometry width="50" height="50" relative="1" as="geometry">
            <mxPoint x="-272.5" y="550" as="sourcePoint" />
            <mxPoint x="-272.5" y="610" as="targetPoint" />
          </mxGeometry>
        </mxCell>
        <mxCell id="zyJOh6czUDk2VCxK8gsp-6" value="" style="ellipse;whiteSpace=wrap;html=1;aspect=fixed;fillColor=#000000;" parent="1" vertex="1">
          <mxGeometry x="300" y="475" width="10" height="10" as="geometry" />
        </mxCell>
        <mxCell id="zyJOh6czUDk2VCxK8gsp-7" value="" style="endArrow=none;html=1;rounded=0;" parent="1" edge="1">
          <mxGeometry width="50" height="50" relative="1" as="geometry">
            <mxPoint x="304.83" y="505" as="sourcePoint" />
            <mxPoint x="304.83" y="485" as="targetPoint" />
          </mxGeometry>
        </mxCell>
        <mxCell id="zyJOh6czUDk2VCxK8gsp-8" value="" style="ellipse;whiteSpace=wrap;html=1;aspect=fixed;fillColor=#FFFFFF;" parent="1" vertex="1">
          <mxGeometry x="325" y="475" width="10" height="10" as="geometry" />
        </mxCell>
        <mxCell id="zyJOh6czUDk2VCxK8gsp-9" value="" style="endArrow=none;html=1;rounded=0;" parent="1" edge="1">
          <mxGeometry width="50" height="50" relative="1" as="geometry">
            <mxPoint x="329.8299999999999" y="505" as="sourcePoint" />
            <mxPoint x="329.8299999999999" y="485" as="targetPoint" />
          </mxGeometry>
        </mxCell>
        <mxCell id="zyJOh6czUDk2VCxK8gsp-10" value="&lt;font style=&quot;font-size: 10px;&quot;&gt;ID&lt;/font&gt;" style="text;html=1;align=center;verticalAlign=middle;resizable=0;points=[];autosize=1;strokeColor=none;fillColor=none;" parent="1" vertex="1">
          <mxGeometry x="290" y="445" width="30" height="30" as="geometry" />
        </mxCell>
        <mxCell id="zyJOh6czUDk2VCxK8gsp-11" value="&lt;font style=&quot;font-size: 10px;&quot;&gt;Type&lt;/font&gt;" style="text;html=1;align=center;verticalAlign=middle;resizable=0;points=[];autosize=1;strokeColor=none;fillColor=none;" parent="1" vertex="1">
          <mxGeometry x="305" y="445" width="50" height="30" as="geometry" />
        </mxCell>
        <mxCell id="zyJOh6czUDk2VCxK8gsp-18" value="" style="ellipse;whiteSpace=wrap;html=1;aspect=fixed;fillColor=#000000;" parent="1" vertex="1">
          <mxGeometry x="-1057.5" y="702.5" width="10" height="10" as="geometry" />
        </mxCell>
        <mxCell id="zyJOh6czUDk2VCxK8gsp-19" value="" style="endArrow=none;html=1;rounded=0;" parent="1" edge="1">
          <mxGeometry width="50" height="50" relative="1" as="geometry">
            <mxPoint x="-1052.5" y="702.5" as="sourcePoint" />
            <mxPoint x="-1052.54" y="672.5" as="targetPoint" />
          </mxGeometry>
        </mxCell>
        <mxCell id="zyJOh6czUDk2VCxK8gsp-20" value="&lt;font style=&quot;font-size: 10px;&quot;&gt;ID&lt;/font&gt;" style="text;html=1;align=center;verticalAlign=middle;resizable=0;points=[];autosize=1;strokeColor=none;fillColor=none;" parent="1" vertex="1">
          <mxGeometry x="-1067.5" y="702.5" width="30" height="30" as="geometry" />
        </mxCell>
        <mxCell id="zyJOh6czUDk2VCxK8gsp-21" value="" style="ellipse;whiteSpace=wrap;html=1;aspect=fixed;fillColor=#FFFFFF;" parent="1" vertex="1">
          <mxGeometry x="-1022.5" y="702.5" width="10" height="10" as="geometry" />
        </mxCell>
        <mxCell id="zyJOh6czUDk2VCxK8gsp-22" value="&lt;font style=&quot;font-size: 10px;&quot;&gt;Start Date&lt;/font&gt;" style="text;html=1;align=center;verticalAlign=middle;resizable=0;points=[];autosize=1;strokeColor=none;fillColor=none;" parent="1" vertex="1">
          <mxGeometry x="-1052.5" y="702.5" width="70" height="30" as="geometry" />
        </mxCell>
        <mxCell id="zyJOh6czUDk2VCxK8gsp-23" value="" style="endArrow=none;html=1;rounded=0;" parent="1" edge="1">
          <mxGeometry width="50" height="50" relative="1" as="geometry">
            <mxPoint x="-1017.5" y="702.5" as="sourcePoint" />
            <mxPoint x="-1017.5400000000001" y="672.5" as="targetPoint" />
          </mxGeometry>
        </mxCell>
        <mxCell id="zyJOh6czUDk2VCxK8gsp-24" value="" style="ellipse;whiteSpace=wrap;html=1;aspect=fixed;fillColor=#FFFFFF;" parent="1" vertex="1">
          <mxGeometry x="-967.5" y="702.5" width="10" height="10" as="geometry" />
        </mxCell>
        <mxCell id="zyJOh6czUDk2VCxK8gsp-25" value="" style="endArrow=none;html=1;rounded=0;" parent="1" edge="1">
          <mxGeometry width="50" height="50" relative="1" as="geometry">
            <mxPoint x="-962.5" y="702.5" as="sourcePoint" />
            <mxPoint x="-962.5400000000001" y="672.5" as="targetPoint" />
          </mxGeometry>
        </mxCell>
        <mxCell id="zyJOh6czUDk2VCxK8gsp-32" value="&lt;font style=&quot;font-size: 10px;&quot;&gt;End Date&lt;/font&gt;" style="text;html=1;align=center;verticalAlign=middle;resizable=0;points=[];autosize=1;strokeColor=none;fillColor=none;" parent="1" vertex="1">
          <mxGeometry x="-997.5" y="702.5" width="70" height="30" as="geometry" />
        </mxCell>
        <mxCell id="zyJOh6czUDk2VCxK8gsp-33" value="" style="ellipse;whiteSpace=wrap;html=1;aspect=fixed;fillColor=#000000;" parent="1" vertex="1">
          <mxGeometry x="-1440" y="570" width="10" height="10" as="geometry" />
        </mxCell>
        <mxCell id="zyJOh6czUDk2VCxK8gsp-34" value="" style="endArrow=none;html=1;rounded=0;" parent="1" edge="1">
          <mxGeometry width="50" height="50" relative="1" as="geometry">
            <mxPoint x="-1435.17" y="600" as="sourcePoint" />
            <mxPoint x="-1435.17" y="580" as="targetPoint" />
          </mxGeometry>
        </mxCell>
        <mxCell id="zyJOh6czUDk2VCxK8gsp-35" value="&lt;font style=&quot;font-size: 10px;&quot;&gt;ID&lt;/font&gt;" style="text;html=1;align=center;verticalAlign=middle;resizable=0;points=[];autosize=1;strokeColor=none;fillColor=none;" parent="1" vertex="1">
          <mxGeometry x="-1450" y="540" width="30" height="30" as="geometry" />
        </mxCell>
        <mxCell id="zyJOh6czUDk2VCxK8gsp-36" value="" style="ellipse;whiteSpace=wrap;html=1;aspect=fixed;fillColor=#FFFFFF;" parent="1" vertex="1">
          <mxGeometry x="-1400" y="570" width="10" height="10" as="geometry" />
        </mxCell>
        <mxCell id="zyJOh6czUDk2VCxK8gsp-37" value="" style="endArrow=none;html=1;rounded=0;" parent="1" edge="1">
          <mxGeometry width="50" height="50" relative="1" as="geometry">
            <mxPoint x="-1395.17" y="600" as="sourcePoint" />
            <mxPoint x="-1395.17" y="580" as="targetPoint" />
          </mxGeometry>
        </mxCell>
        <mxCell id="zyJOh6czUDk2VCxK8gsp-38" value="&lt;font style=&quot;font-size: 10px;&quot;&gt;Description&lt;/font&gt;" style="text;html=1;align=center;verticalAlign=middle;resizable=0;points=[];autosize=1;strokeColor=none;fillColor=none;" parent="1" vertex="1">
          <mxGeometry x="-1430" y="540" width="70" height="30" as="geometry" />
        </mxCell>
        <mxCell id="zyJOh6czUDk2VCxK8gsp-39" value="" style="ellipse;whiteSpace=wrap;html=1;aspect=fixed;fillColor=#FFFFFF;" parent="1" vertex="1">
          <mxGeometry x="-1340" y="570" width="10" height="10" as="geometry" />
        </mxCell>
        <mxCell id="zyJOh6czUDk2VCxK8gsp-40" value="" style="endArrow=none;html=1;rounded=0;" parent="1" edge="1">
          <mxGeometry width="50" height="50" relative="1" as="geometry">
            <mxPoint x="-1335.17" y="600" as="sourcePoint" />
            <mxPoint x="-1335.17" y="580" as="targetPoint" />
          </mxGeometry>
        </mxCell>
        <mxCell id="zyJOh6czUDk2VCxK8gsp-41" value="&lt;font style=&quot;font-size: 10px;&quot;&gt;Violable&lt;/font&gt;" style="text;html=1;align=center;verticalAlign=middle;resizable=0;points=[];autosize=1;strokeColor=none;fillColor=none;" parent="1" vertex="1">
          <mxGeometry x="-1365" y="540" width="60" height="30" as="geometry" />
        </mxCell>
        <mxCell id="zyJOh6czUDk2VCxK8gsp-42" value="" style="ellipse;whiteSpace=wrap;html=1;aspect=fixed;fillColor=#FFFFFF;" parent="1" vertex="1">
          <mxGeometry x="-740" y="451.25" width="10" height="10" as="geometry" />
        </mxCell>
        <mxCell id="zyJOh6czUDk2VCxK8gsp-43" value="" style="endArrow=none;html=1;rounded=0;" parent="1" edge="1">
          <mxGeometry width="50" height="50" relative="1" as="geometry">
            <mxPoint x="-735.1700000000001" y="481.25" as="sourcePoint" />
            <mxPoint x="-735.1700000000001" y="461.25" as="targetPoint" />
          </mxGeometry>
        </mxCell>
        <mxCell id="zyJOh6czUDk2VCxK8gsp-44" value="&lt;font style=&quot;font-size: 10px;&quot;&gt;Date&lt;/font&gt;" style="text;html=1;align=center;verticalAlign=middle;resizable=0;points=[];autosize=1;strokeColor=none;fillColor=none;" parent="1" vertex="1">
          <mxGeometry x="-755" y="425" width="40" height="30" as="geometry" />
        </mxCell>
        <mxCell id="zyJOh6czUDk2VCxK8gsp-50" value="" style="ellipse;whiteSpace=wrap;html=1;aspect=fixed;fillColor=#000000;" parent="1" vertex="1">
          <mxGeometry x="-1280" y="245" width="10" height="10" as="geometry" />
        </mxCell>
        <mxCell id="zyJOh6czUDk2VCxK8gsp-51" value="" style="endArrow=none;html=1;rounded=0;" parent="1" edge="1">
          <mxGeometry width="50" height="50" relative="1" as="geometry">
            <mxPoint x="-1275.17" y="275" as="sourcePoint" />
            <mxPoint x="-1275.17" y="255" as="targetPoint" />
          </mxGeometry>
        </mxCell>
        <mxCell id="zyJOh6czUDk2VCxK8gsp-52" value="&lt;font style=&quot;font-size: 10px;&quot;&gt;ID&lt;/font&gt;" style="text;html=1;align=center;verticalAlign=middle;resizable=0;points=[];autosize=1;strokeColor=none;fillColor=none;" parent="1" vertex="1">
          <mxGeometry x="-1290" y="220" width="30" height="30" as="geometry" />
        </mxCell>
        <mxCell id="zyJOh6czUDk2VCxK8gsp-53" value="" style="ellipse;whiteSpace=wrap;html=1;aspect=fixed;fillColor=#FFFFFF;" parent="1" vertex="1">
          <mxGeometry x="-1240" y="245" width="10" height="10" as="geometry" />
        </mxCell>
        <mxCell id="zyJOh6czUDk2VCxK8gsp-54" value="" style="endArrow=none;html=1;rounded=0;" parent="1" edge="1">
          <mxGeometry width="50" height="50" relative="1" as="geometry">
            <mxPoint x="-1235.17" y="275" as="sourcePoint" />
            <mxPoint x="-1235.17" y="255" as="targetPoint" />
          </mxGeometry>
        </mxCell>
        <mxCell id="zyJOh6czUDk2VCxK8gsp-55" value="&lt;font style=&quot;font-size: 10px;&quot;&gt;Time Slot&lt;/font&gt;" style="text;html=1;align=center;verticalAlign=middle;resizable=0;points=[];autosize=1;strokeColor=none;fillColor=none;" parent="1" vertex="1">
          <mxGeometry x="-1270" y="220" width="70" height="30" as="geometry" />
        </mxCell>
        <mxCell id="zyJOh6czUDk2VCxK8gsp-56" value="(1,N)" style="text;html=1;align=center;verticalAlign=middle;resizable=0;points=[];autosize=1;strokeColor=none;fillColor=none;" parent="1" vertex="1">
          <mxGeometry x="-1097.5" y="285" width="50" height="30" as="geometry" />
        </mxCell>
        <mxCell id="zyJOh6czUDk2VCxK8gsp-58" value="(1,1)" style="text;html=1;align=center;verticalAlign=middle;resizable=0;points=[];autosize=1;strokeColor=none;fillColor=none;" parent="1" vertex="1">
          <mxGeometry x="-1340" y="280" width="50" height="30" as="geometry" />
        </mxCell>
        <mxCell id="zyJOh6czUDk2VCxK8gsp-59" value="(1,N)" style="text;html=1;align=center;verticalAlign=middle;resizable=0;points=[];autosize=1;strokeColor=none;fillColor=none;" parent="1" vertex="1">
          <mxGeometry x="-1560" y="285" width="50" height="30" as="geometry" />
        </mxCell>
        <mxCell id="zyJOh6czUDk2VCxK8gsp-60" value="" style="ellipse;whiteSpace=wrap;html=1;aspect=fixed;fillColor=#000000;" parent="1" vertex="1">
          <mxGeometry x="-1660" y="250" width="10" height="10" as="geometry" />
        </mxCell>
        <mxCell id="zyJOh6czUDk2VCxK8gsp-61" value="" style="endArrow=none;html=1;rounded=0;" parent="1" edge="1">
          <mxGeometry width="50" height="50" relative="1" as="geometry">
            <mxPoint x="-1655.17" y="280" as="sourcePoint" />
            <mxPoint x="-1655.17" y="260" as="targetPoint" />
          </mxGeometry>
        </mxCell>
        <mxCell id="zyJOh6czUDk2VCxK8gsp-62" value="&lt;font style=&quot;font-size: 10px;&quot;&gt;ID&lt;/font&gt;" style="text;html=1;align=center;verticalAlign=middle;resizable=0;points=[];autosize=1;strokeColor=none;fillColor=none;" parent="1" vertex="1">
          <mxGeometry x="-1670" y="225" width="30" height="30" as="geometry" />
        </mxCell>
        <mxCell id="zyJOh6czUDk2VCxK8gsp-63" value="" style="ellipse;whiteSpace=wrap;html=1;aspect=fixed;fillColor=#FFFFFF;" parent="1" vertex="1">
          <mxGeometry x="-1620" y="250" width="10" height="10" as="geometry" />
        </mxCell>
        <mxCell id="zyJOh6czUDk2VCxK8gsp-64" value="" style="endArrow=none;html=1;rounded=0;" parent="1" edge="1">
          <mxGeometry width="50" height="50" relative="1" as="geometry">
            <mxPoint x="-1615.17" y="280" as="sourcePoint" />
            <mxPoint x="-1615.17" y="260" as="targetPoint" />
          </mxGeometry>
        </mxCell>
        <mxCell id="zyJOh6czUDk2VCxK8gsp-65" value="&lt;font style=&quot;font-size: 10px;&quot;&gt;Type&lt;/font&gt;" style="text;html=1;align=center;verticalAlign=middle;resizable=0;points=[];autosize=1;strokeColor=none;fillColor=none;" parent="1" vertex="1">
          <mxGeometry x="-1640" y="225" width="50" height="30" as="geometry" />
        </mxCell>
        <mxCell id="zyJOh6czUDk2VCxK8gsp-66" value="" style="ellipse;whiteSpace=wrap;html=1;aspect=fixed;fillColor=#000000;" parent="1" vertex="1">
          <mxGeometry x="140" y="415" width="10" height="10" as="geometry" />
        </mxCell>
        <mxCell id="zyJOh6czUDk2VCxK8gsp-67" value="" style="endArrow=none;html=1;rounded=0;" parent="1" edge="1">
          <mxGeometry width="50" height="50" relative="1" as="geometry">
            <mxPoint x="144.82999999999998" y="445" as="sourcePoint" />
            <mxPoint x="144.82999999999998" y="425" as="targetPoint" />
          </mxGeometry>
        </mxCell>
        <mxCell id="zyJOh6czUDk2VCxK8gsp-68" value="" style="ellipse;whiteSpace=wrap;html=1;aspect=fixed;fillColor=#FFFFFF;" parent="1" vertex="1">
          <mxGeometry x="165" y="415" width="10" height="10" as="geometry" />
        </mxCell>
        <mxCell id="zyJOh6czUDk2VCxK8gsp-69" value="" style="endArrow=none;html=1;rounded=0;" parent="1" edge="1">
          <mxGeometry width="50" height="50" relative="1" as="geometry">
            <mxPoint x="169.82999999999993" y="445" as="sourcePoint" />
            <mxPoint x="169.82999999999993" y="425" as="targetPoint" />
          </mxGeometry>
        </mxCell>
        <mxCell id="zyJOh6czUDk2VCxK8gsp-70" value="&lt;font style=&quot;font-size: 10px;&quot;&gt;ID&lt;/font&gt;" style="text;html=1;align=center;verticalAlign=middle;resizable=0;points=[];autosize=1;strokeColor=none;fillColor=none;" parent="1" vertex="1">
          <mxGeometry x="130" y="385" width="30" height="30" as="geometry" />
        </mxCell>
        <mxCell id="zyJOh6czUDk2VCxK8gsp-71" value="&lt;font style=&quot;font-size: 10px;&quot;&gt;Role&lt;/font&gt;" style="text;html=1;align=center;verticalAlign=middle;resizable=0;points=[];autosize=1;strokeColor=none;fillColor=none;" parent="1" vertex="1">
          <mxGeometry x="150" y="385" width="40" height="30" as="geometry" />
        </mxCell>
        <mxCell id="zyJOh6czUDk2VCxK8gsp-72" value="NUISANCE" style="rounded=0;whiteSpace=wrap;html=1;" parent="1" vertex="1">
          <mxGeometry x="-1440" y="860" width="120" height="60" as="geometry" />
        </mxCell>
        <mxCell id="zyJOh6czUDk2VCxK8gsp-74" value="HOLIDAY" style="rounded=0;whiteSpace=wrap;html=1;" parent="1" vertex="1">
          <mxGeometry x="-1260" y="860" width="120" height="60" as="geometry" />
        </mxCell>
        <mxCell id="zyJOh6czUDk2VCxK8gsp-75" value="WAIVER" style="rounded=0;whiteSpace=wrap;html=1;" parent="1" vertex="1">
          <mxGeometry x="-1090" y="860" width="120" height="60" as="geometry" />
        </mxCell>
      </root>
    </mxGraphModel>
  </diagram>
</mxfile>
